<?xml version="1.0" encoding="utf-8"?>
<!-- Generator: Adobe Illustrator 17.1.0, SVG Export Plug-In . SVG Version: 6.00 Build 0)  -->
<!DOCTYPE svg PUBLIC "-//W3C//DTD SVG 1.1//EN" "http://www.w3.org/Graphics/SVG/1.1/DTD/svg11.dtd">
<svg version="1.1" id="Layer_1" xmlns="http://www.w3.org/2000/svg" xmlns:xlink="http://www.w3.org/1999/xlink" x="0px" y="0px"
	 viewBox="0 0 171.8 89.4" enable-background="new 0 0 171.8 89.4" xml:space="preserve">
<g>
	<path d="M91.4,32.3c0.1-0.1,0.2-0.1,0.2-0.2c0,0.1,0,0.1,0.1,0.2c0.2,0.2,0.4,0.2,0.6,0c0.2-0.2,0.2-0.4,0-0.6
		c-0.2-0.2-0.4-0.2-0.6,0c-0.1,0.1-0.1,0.1-0.1,0.2c-0.1,0-0.2-0.1-0.2-0.2c-0.5-0.5-0.5-1.3,0-1.8c0.5-0.5,1.3-0.5,1.8,0
		c0.1,0.1,0.1,0.1,0.2,0.2c-0.1,0-0.2,0-0.2,0.1c-0.2,0.2-0.2,0.4,0,0.6c0.2,0.2,0.4,0.2,0.6,0c0.2-0.2,0.2-0.4,0-0.6
		c-0.1-0.1-0.1-0.1-0.2-0.1c0-0.1,0.1-0.1,0.2-0.2c0.5-0.5,1.3-0.5,1.8,0c0.5,0.5,0.5,1.3,0,1.8c-0.1,0.1-0.1,0.1-0.2,0.2
		c0-0.1-0.1-0.1-0.1-0.2c-0.2-0.2-0.4-0.2-0.6,0c-0.2,0.2-0.2,0.4,0,0.6c0.2,0.2,0.4,0.2,0.6,0c0.1-0.1,0.1-0.2,0.1-0.2
		c0.1,0,0.1,0.1,0.2,0.1c0.5,0.5,0.5,1.3,0,1.8c-0.5,0.5-1.3,0.5-1.8,0c-0.1-0.1-0.1-0.1-0.1-0.2c0.1,0,0.2,0,0.2-0.1
		c0.2-0.2,0.2-0.4,0-0.6c-0.2-0.2-0.4-0.2-0.6,0c-0.2,0.2-0.2,0.4,0,0.6c0.1,0.1,0.1,0.1,0.2,0.1c-0.1,0.1-0.1,0.2-0.2,0.2
		c-0.5,0.5-1.3,0.5-1.8,0C90.8,33.6,90.8,32.8,91.4,32.3 M78.3,47.7l12.8-12.8c0.1,0,0.1,0.1,0.1,0.1c0.7,0.3,1.5,0.3,2.1-0.3
		c0.7,0.7,1.9,0.7,2.6-0.1c0.7-0.7,0.7-1.9,0.1-2.6c0.7-0.8,0.6-1.9-0.1-2.6c-0.7-0.7-1.9-0.8-2.6-0.1c-0.8-0.7-1.9-0.6-2.6,0.1
		c-0.7,0.7-0.7,1.9-0.1,2.6c-0.5,0.6-0.6,1.5-0.3,2.1c0,0,0,0,0,0.1L80,44.7c-0.1,0.1-0.2,0.1-0.3,0l-0.1-0.1l0,0l-0.1-0.1
		c-0.1-0.1-0.1-0.2,0-0.3c0,0,0.2-0.2,0.2-0.2l-1.1-1.1L78,43.6l1.3,1.3c0.1,0.1,0.1,0.2,0,0.3L79,45.4c-0.1,0.1-0.2,0.1-0.3,0
		l-1.3-1.3l-0.7,0.7l1.1,1.1l0.3-0.3c0.1-0.1,0.2-0.1,0.3,0l0.3,0.3c0.1,0.1,0.1,0.1,0,0.2c0,0,0,0,0,0.1l-1,1c0,0.1,0,0.2,0.1,0.3
		l0.3,0.4C78.1,47.8,78.3,47.8,78.3,47.7"/>
	<path d="M80.5,34.1c-0.5,0.5-1.3,0.5-1.8,0c-0.1-0.1-0.1-0.2-0.2-0.2c0.1,0,0.1-0.1,0.2-0.1c0.2-0.2,0.2-0.4,0-0.6
		c-0.2-0.2-0.4-0.2-0.6,0c-0.2,0.2-0.2,0.4,0,0.6c0.1,0.1,0.2,0.1,0.2,0.1c0,0.1-0.1,0.1-0.1,0.2c-0.5,0.5-1.3,0.5-1.8,0
		c-0.5-0.5-0.5-1.3,0-1.8c0.1-0.1,0.1-0.1,0.2-0.1c0,0.1,0,0.2,0.1,0.2c0.2,0.2,0.4,0.2,0.6,0c0.2-0.2,0.2-0.4,0-0.6
		c-0.2-0.2-0.4-0.2-0.6,0c-0.1,0.1-0.1,0.1-0.1,0.2c-0.1,0-0.1-0.1-0.2-0.2c-0.5-0.5-0.5-1.3,0-1.8c0.5-0.5,1.3-0.5,1.8,0
		c0.1,0.1,0.1,0.1,0.2,0.2c-0.1,0-0.2,0-0.2,0.1c-0.2,0.2-0.2,0.4,0,0.6c0.2,0.2,0.4,0.2,0.6,0c0.2-0.2,0.2-0.4,0-0.6
		c-0.1-0.1-0.1-0.1-0.2-0.1c0-0.1,0.1-0.2,0.2-0.2c0.5-0.5,1.3-0.5,1.8,0c0.5,0.5,0.5,1.3,0,1.8c-0.1,0.1-0.1,0.1-0.2,0.2
		c0-0.1,0-0.2-0.1-0.2c-0.2-0.2-0.4-0.2-0.6,0c-0.2,0.2-0.2,0.4,0,0.6c0.2,0.2,0.4,0.2,0.6,0c0.1-0.1,0.1-0.1,0.1-0.2
		c0.1,0.1,0.2,0.1,0.2,0.2C81,32.8,81,33.6,80.5,34.1 M93.8,47.7l0.3-0.4c0.1-0.1,0.1-0.2,0.1-0.3l-1-1c0,0,0,0,0-0.1
		c0-0.1,0-0.2,0-0.2l0.3-0.3c0.1-0.1,0.2-0.1,0.3,0l0.3,0.3l1.1-1.1l-0.7-0.7l-1.3,1.3c-0.1,0.1-0.2,0.1-0.3,0l-0.3-0.3
		c-0.1-0.1-0.1-0.2,0-0.3l1.3-1.3l-0.7-0.7L92.1,44c0,0,0.2,0.2,0.2,0.2c0.1,0.1,0.1,0.2,0,0.3l-0.1,0.1l0,0l-0.1,0.1
		c-0.1,0.1-0.2,0.1-0.3,0L81.3,34.2c0-0.1,0-0.1,0-0.1c0.3-0.7,0.2-1.6-0.3-2.1c0.7-0.7,0.7-1.9-0.1-2.6c-0.7-0.7-1.9-0.7-2.6-0.1
		c-0.8-0.7-1.9-0.6-2.6,0.1C75,30.1,75,31.3,75.7,32c-0.7,0.7-0.7,1.9,0.1,2.6c0.7,0.7,1.9,0.7,2.6,0.1c0.6,0.5,1.4,0.6,2.1,0.3
		c0,0,0.1,0,0.1-0.1l12.8,12.8C93.6,47.8,93.7,47.8,93.8,47.7"/>
	<polygon points="85.9,11.6 86.8,14.7 90.1,14.6 87.4,16.4 88.5,19.5 85.9,17.5 83.3,19.5 84.4,16.4 81.8,14.6 85,14.7 	"/>
	<polygon points="94.9,18.6 92,18.5 94.4,20.1 93.4,22.8 95.7,21.1 98,22.8 97.1,20.1 99.5,18.5 96.6,18.6 95.7,15.8 	"/>
	<polygon points="102.1,24.5 99.8,24.4 101.7,25.8 100.9,28 102.8,26.5 104.7,28 103.9,25.8 105.9,24.4 103.5,24.5 102.8,22.2 	"/>
	<polygon points="76.1,15.8 75.3,18.6 72.4,18.5 74.8,20.1 73.8,22.8 76.1,21.1 78.4,22.8 77.4,20.1 79.8,18.5 76.9,18.6 	"/>
	<polygon points="69,22.2 68.4,24.5 66,24.4 67.9,25.8 67.1,28 69,26.5 70.9,28 70.1,25.8 72.1,24.4 69.7,24.5 	"/>
	<path d="M24.3,61.8c0-0.9-0.7-1.4-2.2-1.4h-3v2.8h3.2C23.5,63.2,24.3,62.8,24.3,61.8 M23.7,57.6c0-0.8-0.7-1.3-1.9-1.3H19V59h2.6
		C22.9,59,23.7,58.5,23.7,57.6 M25.7,57.3c0,1.2-0.8,1.9-1.6,2.3c1.3,0.4,2.2,1.1,2.2,2.5c0,1.8-1.6,2.8-4,2.8h-5.1V54.7h4.9
		C24.3,54.7,25.7,55.7,25.7,57.3"/>
	<path d="M40.6,60.4c0,3-1.8,4.5-4.7,4.5c-2.8,0-4.7-1.5-4.7-4.5v-5.8h1.9v5.8c0,1.9,1,2.9,2.8,2.9c1.7,0,2.7-1,2.7-2.8v-5.8h1.9
		V60.4z"/>
	<polygon points="50.9,64.8 49,64.8 49,56.3 45.5,56.3 45.5,54.7 54.4,54.7 54.4,56.3 50.9,56.3 	"/>
	<polygon points="59.5,54.7 61.4,54.7 61.4,63.2 67.1,63.2 67.1,64.8 59.5,64.8 	"/>
	<polygon points="80.3,56.3 74.1,56.3 74.1,58.9 79.6,58.9 79.6,60.5 74.1,60.5 74.1,63.2 80.3,63.2 80.3,64.8 72.2,64.8 72.2,54.7 
		80.3,54.7 	"/>
	<path d="M90.4,56.3h-2.8v3.4h2.8c1.4,0,2.2-0.7,2.2-1.7C92.6,56.9,91.8,56.3,90.4,56.3 M92.7,64.8L90,61.3h-2.4v3.5h-1.9V54.7h4.9
		c2.5,0,4.1,1.2,4.1,3.2c0,1.7-1.1,2.7-2.6,3.1l3,3.8H92.7z"/>
	<polygon points="100.2,64.8 100.2,54.7 108,54.7 108,55.4 101,55.4 101,59.4 107.3,59.4 107.3,60.1 101,60.1 101,64.1 108,64.1 
		108,64.8 	"/>
	<polygon points="113.7,64.8 113.7,54.7 114.5,54.7 114.5,64.1 120.9,64.1 120.9,64.8 	"/>
	<rect x="126.5" y="54.7" width="0.8" height="10.1"/>
	<polygon points="137.5,55.4 137.5,64.8 136.7,64.8 136.7,55.4 132.9,55.4 132.9,54.7 141.3,54.7 141.3,55.4 	"/>
	<polygon points="146.8,64.8 146.8,54.7 154.6,54.7 154.6,55.4 147.6,55.4 147.6,59.4 153.9,59.4 153.9,60.1 147.6,60.1 147.6,64.1 
		154.7,64.1 154.7,64.8 	"/>
	<path d="M59.5,76.2H57v1.2h2.6c0.7,0,1-0.1,1.2-0.2c0.1-0.1,0.1-0.2,0.1-0.4c0-0.1,0-0.2-0.1-0.3C60.6,76.2,60.2,76.2,59.5,76.2
		 M59.5,74.6H57v1.1h2.5c0.8,0,1-0.1,1.2-0.2c0.1-0.1,0.1-0.2,0.1-0.3c0-0.1,0-0.2-0.1-0.3C60.6,74.7,60.3,74.6,59.5,74.6
		 M56.5,74.2h3.1c0.9,0,1.4,0.1,1.6,0.4c0.2,0.2,0.2,0.4,0.2,0.6c0,0.4-0.3,0.7-0.9,0.8c0.6,0.1,0.9,0.4,0.9,0.8
		c0,0.2-0.1,0.4-0.2,0.6c-0.3,0.3-0.8,0.4-1.7,0.4h-3.1V74.2z"/>
	<polygon points="65.2,75.9 67.2,74.2 68,74.2 68,74.2 65.5,76.3 65.5,77.8 64.9,77.8 64.9,76.3 62.4,74.2 62.4,74.2 63.2,74.2 	"/>
	<path d="M75.9,77.1C76,77,76,76.9,76,76.8c0-0.1,0-0.2-0.1-0.3c-0.1-0.1-0.4-0.2-1.8-0.3c-1.4-0.1-1.9-0.2-2.1-0.4
		c-0.1-0.1-0.2-0.3-0.2-0.6c0-0.2,0.1-0.5,0.2-0.7c0.2-0.2,0.8-0.4,2-0.4c1,0,1.8,0.2,2.3,0.3v0.5c-0.6-0.2-1.4-0.4-2.3-0.4
		c-1.1,0-1.4,0.1-1.6,0.3c-0.1,0.1-0.1,0.2-0.1,0.3s0,0.2,0.1,0.3c0.1,0.1,0.5,0.2,1.7,0.3c1.6,0.1,1.9,0.2,2.2,0.4
		c0.2,0.1,0.2,0.4,0.2,0.6c0,0.2-0.1,0.5-0.2,0.7c-0.2,0.2-0.7,0.5-2.1,0.5c-1,0-2-0.2-2.6-0.4V77c0.6,0.2,1.6,0.5,2.6,0.5
		C75.4,77.4,75.7,77.3,75.9,77.1"/>
	<path d="M79,76.4h2.8l-1.4-2L79,76.4z M80.8,74.2l2.6,3.6h-0.7l-0.6-0.9h-3.4l-0.6,0.9h-0.6l2.6-3.6H80.8z"/>
	<polygon points="89.3,77.3 89.3,74.2 89.9,74.2 89.9,77.8 89.1,77.8 85.3,74.6 85.3,77.8 84.7,77.8 84.7,74.2 85.5,74.2 	"/>
	<path d="M94.2,77.3c1,0,1.5-0.2,1.7-0.4c0.2-0.2,0.3-0.5,0.3-0.9c0-0.4-0.1-0.7-0.3-0.9c-0.2-0.2-0.8-0.4-1.7-0.4h-2v2.7H94.2z
		 M96.4,77.2c-0.3,0.3-0.9,0.6-2.2,0.6h-2.5v-3.6h2.5c1.3,0,1.9,0.3,2.2,0.6c0.3,0.3,0.5,0.7,0.5,1.2C96.9,76.5,96.7,76.9,96.4,77.2
		"/>
	<path d="M99.3,76.4h2.8l-1.4-2L99.3,76.4z M101,74.2l2.6,3.6H103l-0.6-0.9h-3.4l-0.6,0.9h-0.6l2.6-3.6H101z"/>
	<polygon points="109.4,77.3 109.4,77.8 104.9,77.8 104.9,74.2 105.5,74.2 105.5,77.3 	"/>
	<path d="M114.6,77.1c0.1-0.1,0.1-0.2,0.1-0.3c0-0.1,0-0.2-0.1-0.3c-0.1-0.1-0.4-0.2-1.8-0.3c-1.4-0.1-1.9-0.2-2.1-0.4
		c-0.1-0.1-0.2-0.3-0.2-0.6c0-0.2,0.1-0.5,0.2-0.7c0.2-0.2,0.8-0.4,2-0.4c1,0,1.8,0.2,2.3,0.3v0.5c-0.6-0.2-1.4-0.4-2.3-0.4
		c-1.1,0-1.4,0.1-1.6,0.3c-0.1,0.1-0.1,0.2-0.1,0.3s0,0.2,0.1,0.3c0.1,0.1,0.5,0.2,1.7,0.3c1.6,0.1,1.9,0.2,2.2,0.4
		c0.2,0.1,0.2,0.4,0.2,0.6c0,0.2-0.1,0.5-0.2,0.7c-0.2,0.2-0.7,0.5-2.1,0.5c-1,0-2-0.2-2.6-0.4V77c0.6,0.2,1.6,0.5,2.6,0.5
		C114.1,77.4,114.5,77.3,114.6,77.1"/>
</g>
</svg>
