<?xml version="1.0" encoding="utf-8"?>
<!-- Generator: Adobe Illustrator 17.1.0, SVG Export Plug-In . SVG Version: 6.00 Build 0)  -->
<!DOCTYPE svg PUBLIC "-//W3C//DTD SVG 1.1//EN" "http://www.w3.org/Graphics/SVG/1.1/DTD/svg11.dtd">
<svg version="1.1" id="Layer_1" xmlns="http://www.w3.org/2000/svg" xmlns:xlink="http://www.w3.org/1999/xlink" x="0px" y="0px"
	 viewBox="0 0 150.5 150.4" enable-background="new 0 0 150.5 150.4" xml:space="preserve">
<g>
	<defs>
		<rect id="SVGID_1_" width="150.5" height="150.4"/>
	</defs>
	<clipPath id="SVGID_2_">
		<use xlink:href="#SVGID_1_"  overflow="visible"/>
	</clipPath>
	<path clip-path="url(#SVGID_2_)" d="M75.2,0c-23,0-43.5,11.2-60.8,31.3l-1.1,1.3l126,80.1l0.8-1.4c7.2-12.3,10.3-23.8,10.3-36.2
		C150.5,33.8,116.7,0,75.2,0 M87.7,20.4c0-0.4,0-0.8,0-1.2c0-0.1,0-0.2,0-0.3c0-0.4,0-0.9,0-1.3c0,0,0-0.1,0-0.1c0-0.2,0-0.4,0-0.6
		c0-2.7,0-3.5,0-7.4c0,0,0.9-2,2.3-0.1c0,0,0,0.5,0,1.4h0c0,2.6,0,5.4,0,10.3c0,4.9,0,9.8,0,12.5h0c0,0.9,0,1.4,0,1.4
		c-1.4,1.9-2.3-0.1-2.3-0.1c0-3.8,0-6.8,0-9.6c0-0.2,0-0.4,0-0.6c0,0,0-0.1,0-0.1c0-0.4,0-0.9,0-1.3c0-0.1,0-0.2,0-0.3
		c0-0.4,0-0.8,0-1.2C87.7,21.3,87.7,20.9,87.7,20.4 M60.1,20.4c0-0.4,0-0.8,0-1.2c0-0.1,0-0.2,0-0.3c0-0.4,0-0.9,0-1.3
		c0,0,0-0.1,0-0.1c0-0.2,0-0.4,0-0.6c0-2.7,0-3.5,0-7.4c0,0,0.9-2,2.3-0.1c0,0,0,0.5,0,1.4h0c0,2.6,0,5.4,0,10.3c0,4.9,0,9.8,0,12.5
		h0c0,0.9,0,1.4,0,1.4c-1.4,1.9-2.3-0.1-2.3-0.1c0-3.8,0-6.8,0-9.6c0-0.2,0-0.4,0-0.6c0,0,0-0.1,0-0.1c0-0.4,0-0.9,0-1.3
		c0-0.1,0-0.2,0-0.3c0-0.4,0-0.8,0-1.2C60.1,21.3,60.1,20.9,60.1,20.4 M73.9,64.9c-1.7-0.8-2.7-1-3.5-1.5c-4.2-2.8-8.4-5.6-12.7-8.5
		c-3.8-2.6-5.8-6.2-5.8-10.8c0-2.8,0-5.6,0-8.4h0c0-11,0-15.1,0-26.2c0,0,0.9-2,2.3-0.1c0,0,0,0.5,0,1.4c0,0,0,0,0,0
		c0,0,0,12.9,0,19.3c0,1.6,0,3.3,0,5.3c3.4,2.2,6.7,4.5,10.2,6.5c6.5,3.7,9.6,9.1,9.4,16.5C73.8,60.4,73.9,62.1,73.9,64.9
		 M71.6,43.3c-3.2-1.8-4.5-4.7-4.7-8.1c-0.4-6.8,1-13.1,5.6-18.3c1.8-2.1,1-4.3,1.2-6.5c0.1-1.5,0.4-2.6,2.6-1.9
		c0.3,2.4,0.2,5.1,1,7.5c0.9,2.4,3,4.3,4.1,6.6c2,4,2.6,8.5,2,12.9c-0.4,3.3-1.6,6.3-4.9,8c-1.2,0.6-2.2,1.3-3.6,2.2
		C73.7,44.7,72.7,43.9,71.6,43.3 M76.2,58.6C76,51.2,79.1,45.7,85.6,42c3.5-2,6.9-4.4,10.2-6.5c0-2,0-3.7,0-5.3c0-6.4,0-19.3,0-19.3
		c0,0,0,0,0,0c0-0.9,0-1.4,0-1.4c1.4-1.9,2.3,0.1,2.3,0.1c0,11,0,15.1,0,26.2h0c0,2.8,0,5.6,0,8.4c0,4.6-2,8.2-5.8,10.8
		c-4.2,2.8-8.4,5.7-12.7,8.5c-0.8,0.5-1.7,0.8-3.5,1.5C76.2,62.1,76.2,60.4,76.2,58.6 M91.3,76.5c-3.8-2.3-7.7-4.8-12.2-7.6
		c5-6.6,12.7-8.5,18.2-13.5C101,62.9,98.7,71.3,91.3,76.5"/>
	<path clip-path="url(#SVGID_2_)" d="M7,44.6c-4.6,10-7,19.6-7,30.6c0,40.7,32.4,73.9,72.8,75.2c0-5.2,0-12.1,0-14.3
		c0.1-4.5-2-7.8-5.7-10.3c-3-2-6.1-3.9-9-6c-1.6-1.1-3-2.6-4.1-4.1c-3.7-4.9-1.7-10.3-2-16.1c1.3,0.5,1.9,0.7,2.4,1
		c4,2.6,7.8,5.4,11.9,7.8c5.3,3.2,7.7,7.8,7.6,13.9c0,1,0.4,2,0.6,3.3c2.1-2,2.2-2,2.2-4.3c0-5.1,2-9.2,6.2-12.2
		c2.7-1.9,5.4-3.7,8.2-5.6c2.6,1.7,5,3.4,7.3,4.9c-0.4,6-1.7,8.4-6,11.4c-3,2-6,3.9-9,6c-2.3,1.6-4.4,3.5-5.3,6.3
		c-0.5,1.4-0.4,11.4,0,18.2c21.2-0.7,41-9.4,54.8-25.8l1.1-1.3L7.7,43L7,44.6z M78.5,95.6c3.2,2.1,6.2,4.1,9.8,6.4
		c-3.9,2.4-7.2,4.5-10.6,6.7C76.2,104,76.4,99.1,78.5,95.6 M51.9,86.5c0.2-2.3,0-4.5,0-7.8c1.9,0.9,3,1.3,3.9,1.9
		c3.7,2.4,7.3,4.9,11,7.3c4.8,3.1,7.1,7.6,7,13.3c0,2.4,0,4.8,0,8c-2-1.1-3.3-1.7-4.5-2.5c-3.4-2.2-6.8-4.5-10.2-6.8
		C54.3,96.8,51.3,92.6,51.9,86.5"/>
</g>
</svg>
