<?xml version="1.0" encoding="utf-8"?>
<!-- Generator: Adobe Illustrator 17.1.0, SVG Export Plug-In . SVG Version: 6.00 Build 0)  -->
<!DOCTYPE svg PUBLIC "-//W3C//DTD SVG 1.1//EN" "http://www.w3.org/Graphics/SVG/1.1/DTD/svg11.dtd">
<svg version="1.1" id="Layer_1" xmlns="http://www.w3.org/2000/svg" xmlns:xlink="http://www.w3.org/1999/xlink" x="0px" y="0px"
	 viewBox="0 0 399 108" enable-background="new 0 0 399 108" xml:space="preserve">
<g>
	<path d="M221.1,53.9V19.6c0-1-0.4-1-1.2-1.5c-1.2-0.7-2.4-0.5-4.2-0.5c3.3-0.4,4.9,0.2,8.1,0.2c2.9,0,5.5-0.4,9.3-0.1
		c-1.8-0.2-3.8,0.4-4.5,0.6c-1.1,0.4-2,0.4-2,1.4l0.1,33.9c0.5,0,1.1,0.2,1.9,0.4c2.2,0.4,6.1,1.8,11.8,4.7
		c13.8,6.9,20.1,10.6,36.9,11.1c6.7,0.3,11.1-0.4,17.4-1c-9,1.7-13.1,2.4-21.6,2.5c-22.1,0.2-33.7-11.7-47.4-15
		c-3.7-0.9-8.7,0.1-10.3,0.1l2-0.5c-1.1,0.1-1.7,0.1-1.7,0.1l2.4-0.3c1.1-0.3,2-0.5,2.8-0.7C221.1,54.7,221.1,54.3,221.1,53.9
		L221.1,53.9z"/>
	<path fill-rule="evenodd" clip-rule="evenodd" d="M252.4,27.6c-1.2,0.4-2.5-0.5-5,0.1c0.5-0.1,0.9-0.1,1.4,0.1
		c0.7,0.2,0.8,0.6,0.1,2.1c0,0-9.8,19.8-9.7,19.8c0,0-0.2,0.6-1.5,0.8c-0.6,0.1-1.5,0.1-2.9,0.4c3.4-0.4,3.3,0,6.3,0
		c0,0-0.3-0.2-0.1-0.7c0.5-1,4.5-8.7,4.5-8.7s12.6,0,12.6-0.1c0.1,0,3.5,5.3,5.2,7.9c0.6,0.9,0.2,1.5,0.2,1.5
		c3.1-0.2,3.3-0.1,5.5-0.1c2-0.1,5.2,0.1,5.2,0.1s-1.8-0.3-3.7-0.5c-3.6-0.4-3.9-1.7-3.9-1.7C266.5,48.8,252.4,27.6,252.4,27.6
		L252.4,27.6z M257.7,40.9l-12,0.1l5-11.6L257.7,40.9L257.7,40.9z"/>
	<path fill-rule="evenodd" clip-rule="evenodd" d="M307.7,45.6c0,0-26.2-18-26.2-18c-1.1,0.1-1.5,0.1-2.7,0c0,0,0.2,0.2,0.3,0.4
		c0.1,0.2,0.2,0.5,0.2,0.5v18.2c0,3-0.1,3.3-1.4,3.7c-0.5,0.2-3.2,0.3-3.2,0.3c4.8,0.4,3.2-0.5,8,0.1c-0.3-0.5-0.8-2.2-0.8-4V30.4
		c0,0.1,28.7,20.1,28.7,20.1V29.2c0-0.8,0.2-1,0.7-1.2c0.5-0.1-0.3,0,2.1-0.5c-6.2,0.9-4.2,0-9.6,0.2c0,0,1.5,0,2.5,0.1
		c1.2,0.2,1.2,0.7,1.5,1.2V45.6L307.7,45.6z"/>
	<path fill-rule="evenodd" clip-rule="evenodd" d="M344.4,27c-3.6,0.3-9.9,0.2-17,0.3c-2.9,0-6.6-0.3-6.6-0.3
		c2.7,0.2,4.1,1.2,4.1,3.8c0,0,0,17.2-0.1,17.2c0,1.8-1.3,1.7-3.7,2c0,0,2.5-0.1,8.4,0.3c4.8,0.3,9.1,0.8,13.3-1
		c1.9-0.8,2.6-1.2,4-2.7c-5,2.9-10.6,2.6-16.1,2.4c-2.5-0.1-3.4-0.5-3-2.6c0,0,0-15.9,0-17c0.1-1.5,6.3-0.9,7.2-0.9l6.6,0.1
		c2.3-0.1,2.3,1,2.9,1.9C344.4,29.1,344.2,28.1,344.4,27L344.4,27z"/>
	<path d="M314.3,43c0,0,2.8-4.5,15.3-1.7c12.5,2.8,18.8-3.1,18.8-3.1s-6.7,3.6-19.2,0.7C316.8,36.2,314.3,43,314.3,43L314.3,43z"/>
	<path d="M46.7,20.1c-5.4-3-14.7-3.2-22.7-2.6c-8.1,0.5-6.2,0.4-12.8,0c2.9,0.3,3.8,0.5,4.9,0.8c1.4,0.4,2.5,0.8,2.5,1.6
		c0,0,0.1,32.9,0.1,34.1c0,1-0.5,1.5-1.8,1.5c-4,0.1-4.1,0.3-5.8,0.6c0,0,4.3-0.4,6.6-0.1c3.8,0.6,5,0.4,7.7,0.1
		c-1.5-1.6-1.4-3.4-1.4-5.4c0,0,0-23.2,0-30.4c0-1.4,8-2.3,12.9-1.5c7.3,1.2,9.1,5.3,9.3,9.6c0.1,4-1.6,7.1-7.5,9.3
		c-3.4,1.3-3.7,1-10.1,1.6c1.6,0.2,6.8-0.1,10.2,1.3c12.8,5.1,21.5,18.3,43.3,21c8.4,1,12.6,0.8,21.8,0.3
		c-6.4-0.2-10.9-0.1-17.4-1.3c-16.4-2.7-21.7-7.2-33.8-15.8c-5-3.6-8.4-5.5-10.6-6.2c4.7-1.7,10.8-5.8,10.7-10.5
		C52.9,24.8,52.3,23.2,46.7,20.1L46.7,20.1z"/>
	<path fill-rule="evenodd" clip-rule="evenodd" d="M89.9,27.3c-3.6,0.3-9.9,0.2-17,0.3c-2.9,0-6.6-0.3-6.6-0.3
		c2.7,0.2,4.1,1.2,4.1,3.8c0,0,0,17.2-0.1,17.2c0,1.8-1.3,1.7-3.7,2c0,0,2.5-0.1,8.4,0.3c4.8,0.3,9.1,0.8,13.3-1
		c1.9-0.8,2.6-1.2,4-2.7c-5,2.9-10.6,2.6-16.1,2.4c-2.5-0.1-3.4-0.5-3-2.6c0,0,0-15.9,0-17c0.1-1.5,6.3-0.9,7.2-0.9l6.6,0.1
		c2.3-0.1,2.3,1,2.9,1.9C89.8,29.5,89.6,28.5,89.9,27.3L89.9,27.3z"/>
	<path fill-rule="evenodd" clip-rule="evenodd" d="M122.7,28.4c-5-1.4-10.3-1.1-14.2-1c-6.3,0.1-5.7,0.3-11.6,0.1
		c0.4,0,4.9,0.4,4.9,3.3l-0.1,16.8c0,2.9-2.5,2.7-4.8,3c2,0.4,5.2-0.1,7.7,0.1c9,0.4,17.1-0.6,23.6-3.4c4.7-2,6.3-4.5,6.2-8.4
		C134.3,34.1,130.4,30.6,122.7,28.4L122.7,28.4z M105.4,28.9c0-0.9,4.9-1.2,9-0.7c5.6,0.7,8.7,2.1,12.1,4.7c3.1,2.5,5,5.8,3.3,9.4
		c-1.3,2.7-4.5,4.7-8.1,6c-2.7,0.9-8.5,2.4-15.5,1.6c-0.3,0-0.5-0.6-0.7-1.2V28.9L105.4,28.9z"/>
	<path d="M59.4,43c0,0,2.8-4.5,15.3-1.7c12.5,2.8,18.8-3.1,18.8-3.1s-6.7,3.6-19.2,0.7C61.8,36.1,59.4,43,59.4,43L59.4,43z"/>
	<path d="M304.6,63.8c0-1.2-0.5-1.8-2.3-2.4c-1.6-0.6-1.9-0.9-1.9-1.6c0-0.6,0.5-1.2,1.6-1.2c0.8,0,1.3,0.3,1.9,0.7l0.6-0.7
		c-0.7-0.5-1.4-0.9-2.4-0.9c-1.5,0-2.5,0.8-2.5,2c0,1.2,0.6,1.7,2.3,2.3c1.5,0.5,1.9,1,1.9,1.7c0,0.8-0.7,1.4-1.7,1.4
		c-0.8,0-1.5-0.4-2.1-1l-0.6,0.7c0.6,0.6,1.6,1.1,2.7,1.1C303.6,66,304.6,65.1,304.6,63.8L304.6,63.8z"/>
	<path fill-rule="evenodd" clip-rule="evenodd" d="M338,60.3c0-1.6-1.1-2.4-2.5-2.4h-3v8h0.9v-3.2h1.9C336.9,62.8,338,61.9,338,60.3
		L338,60.3z M337.1,60.3c0,1.1-0.6,1.6-1.8,1.6h-2v-3.2h2.1C336.5,58.7,337.1,59.3,337.1,60.3L337.1,60.3z"/>
	<path fill-rule="evenodd" clip-rule="evenodd" d="M370.9,65.9l-2.8-8h-1l-2.8,8h0.9l0.7-2h3.3l0.7,2H370.9L370.9,65.9z M369,63.1
		h-2.8l0.9-2.6c0.2-0.6,0.4-1.3,0.5-1.6c0.1,0.3,0.3,1.1,0.5,1.6L369,63.1L369,63.1z"/>
	<g>
		<path d="M128.6,19.7c0,0,21,2.2,31.6,6.4c10.6,4.2,17.4,11.7-9.8,23.6c-25.1,11-11.9,17.8,2.7,30c-25.7-13.3-33-22.7-8.4-33.6
			c18.7-8.3,25.6-13.9,6.2-21.4C142.3,21.4,128.6,19.7,128.6,19.7L128.6,19.7z"/>
		<path fill-rule="evenodd" clip-rule="evenodd" d="M133.6,12.5c0,0,16.1,1.4,35,4.3c23.9,3.6,42.6,14.9,27.1,23.1
			c-20.2,10.7-23.2,33.4,66.3,46.1c65.9,9.4,125.9,9.4,125.9,9.4s-56.1-2.1-121.2-12c-33.8-5.1-91.6-24.9-67-39.4
			c26.1-15.3-4.5-25.4-32.1-28.2C147.3,13.7,133.6,12.5,133.6,12.5L133.6,12.5z"/>
	</g>
	<g>
		<path d="M353.2,21.1c1.7,0,3.1,1.4,3.1,3.2c0,1.8-1.4,3.2-3.1,3.2c-1.7,0-3.1-1.4-3.1-3.2C350.1,22.6,351.5,21.1,353.2,21.1
			L353.2,21.1z M353.2,21.6c-1.4,0-2.5,1.2-2.5,2.7c0,1.5,1.1,2.7,2.6,2.7c1.4,0,2.5-1.2,2.5-2.7C355.8,22.8,354.6,21.6,353.2,21.6
			L353.2,21.6z M352.6,26.2h-0.6v-3.5c0.3,0,0.6-0.1,1-0.1c0.5,0,0.9,0.1,1.1,0.3c0.2,0.2,0.3,0.4,0.3,0.7c0,0.5-0.3,0.8-0.7,0.9v0
			c0.3,0.1,0.5,0.3,0.6,0.9c0.1,0.5,0.2,0.8,0.2,0.9H354c-0.1-0.1-0.2-0.4-0.2-0.9c-0.1-0.5-0.3-0.6-0.8-0.6h-0.4V26.2z M352.6,24.2
			h0.4c0.5,0,0.9-0.2,0.9-0.6c0-0.3-0.2-0.6-0.9-0.6c-0.2,0-0.3,0-0.4,0V24.2z"/>
	</g>
</g>
</svg>
