<?xml version="1.0" encoding="utf-8"?>
<!-- Generator: Adobe Illustrator 17.1.0, SVG Export Plug-In . SVG Version: 6.00 Build 0)  -->
<!DOCTYPE svg PUBLIC "-//W3C//DTD SVG 1.1//EN" "http://www.w3.org/Graphics/SVG/1.1/DTD/svg11.dtd">
<svg version="1.1" xmlns="http://www.w3.org/2000/svg" xmlns:xlink="http://www.w3.org/1999/xlink" x="0px" y="0px"
	 viewBox="0 0 171.8 89.4" enable-background="new 0 0 171.8 89.4" xml:space="preserve">
<g id="Layer_1" display="none">
	<g display="inline">
		<path d="M91.4,32.3c0.1-0.1,0.2-0.1,0.2-0.2c0,0.1,0,0.1,0.1,0.2c0.2,0.2,0.4,0.2,0.6,0c0.2-0.2,0.2-0.4,0-0.6
			c-0.2-0.2-0.4-0.2-0.6,0c-0.1,0.1-0.1,0.1-0.1,0.2c-0.1,0-0.2-0.1-0.2-0.2c-0.5-0.5-0.5-1.3,0-1.8c0.5-0.5,1.3-0.5,1.8,0
			c0.1,0.1,0.1,0.1,0.2,0.2c-0.1,0-0.2,0-0.2,0.1c-0.2,0.2-0.2,0.4,0,0.6c0.2,0.2,0.4,0.2,0.6,0c0.2-0.2,0.2-0.4,0-0.6
			c-0.1-0.1-0.1-0.1-0.2-0.1c0-0.1,0.1-0.1,0.2-0.2c0.5-0.5,1.3-0.5,1.8,0c0.5,0.5,0.5,1.3,0,1.8c-0.1,0.1-0.1,0.1-0.2,0.2
			c0-0.1-0.1-0.1-0.1-0.2c-0.2-0.2-0.4-0.2-0.6,0c-0.2,0.2-0.2,0.4,0,0.6c0.2,0.2,0.4,0.2,0.6,0c0.1-0.1,0.1-0.2,0.1-0.2
			c0.1,0,0.1,0.1,0.2,0.1c0.5,0.5,0.5,1.3,0,1.8c-0.5,0.5-1.3,0.5-1.8,0c-0.1-0.1-0.1-0.1-0.1-0.2c0.1,0,0.2,0,0.2-0.1
			c0.2-0.2,0.2-0.4,0-0.6c-0.2-0.2-0.4-0.2-0.6,0c-0.2,0.2-0.2,0.4,0,0.6c0.1,0.1,0.1,0.1,0.2,0.1c-0.1,0.1-0.1,0.2-0.2,0.2
			c-0.5,0.5-1.3,0.5-1.8,0C90.8,33.6,90.8,32.8,91.4,32.3 M78.3,47.7l12.8-12.8c0.1,0,0.1,0.1,0.1,0.1c0.7,0.3,1.5,0.3,2.1-0.3
			c0.7,0.7,1.9,0.7,2.6-0.1c0.7-0.7,0.7-1.9,0.1-2.6c0.7-0.8,0.6-1.9-0.1-2.6c-0.7-0.7-1.9-0.8-2.6-0.1c-0.8-0.7-1.9-0.6-2.6,0.1
			c-0.7,0.7-0.7,1.9-0.1,2.6c-0.5,0.6-0.6,1.5-0.3,2.1c0,0,0,0,0,0.1L80,44.7c-0.1,0.1-0.2,0.1-0.3,0l-0.1-0.1l0,0l-0.1-0.1
			c-0.1-0.1-0.1-0.2,0-0.3c0,0,0.2-0.2,0.2-0.2l-1.1-1.1L78,43.6l1.3,1.3c0.1,0.1,0.1,0.2,0,0.3L79,45.4c-0.1,0.1-0.2,0.1-0.3,0
			l-1.3-1.3l-0.7,0.7l1.1,1.1l0.3-0.3c0.1-0.1,0.2-0.1,0.3,0l0.3,0.3c0.1,0.1,0.1,0.1,0,0.2c0,0,0,0,0,0.1l-1,1c0,0.1,0,0.2,0.1,0.3
			l0.3,0.4C78.1,47.8,78.3,47.8,78.3,47.7"/>
		<path d="M80.5,34.1c-0.5,0.5-1.3,0.5-1.8,0c-0.1-0.1-0.1-0.2-0.2-0.2c0.1,0,0.1-0.1,0.2-0.1c0.2-0.2,0.2-0.4,0-0.6
			c-0.2-0.2-0.4-0.2-0.6,0c-0.2,0.2-0.2,0.4,0,0.6c0.1,0.1,0.2,0.1,0.2,0.1c0,0.1-0.1,0.1-0.1,0.2c-0.5,0.5-1.3,0.5-1.8,0
			c-0.5-0.5-0.5-1.3,0-1.8c0.1-0.1,0.1-0.1,0.2-0.1c0,0.1,0,0.2,0.1,0.2c0.2,0.2,0.4,0.2,0.6,0c0.2-0.2,0.2-0.4,0-0.6
			c-0.2-0.2-0.4-0.2-0.6,0c-0.1,0.1-0.1,0.1-0.1,0.2c-0.1,0-0.1-0.1-0.2-0.2c-0.5-0.5-0.5-1.3,0-1.8c0.5-0.5,1.3-0.5,1.8,0
			c0.1,0.1,0.1,0.1,0.2,0.2c-0.1,0-0.2,0-0.2,0.1c-0.2,0.2-0.2,0.4,0,0.6c0.2,0.2,0.4,0.2,0.6,0c0.2-0.2,0.2-0.4,0-0.6
			c-0.1-0.1-0.1-0.1-0.2-0.1c0-0.1,0.1-0.2,0.2-0.2c0.5-0.5,1.3-0.5,1.8,0c0.5,0.5,0.5,1.3,0,1.8c-0.1,0.1-0.1,0.1-0.2,0.2
			c0-0.1,0-0.2-0.1-0.2c-0.2-0.2-0.4-0.2-0.6,0c-0.2,0.2-0.2,0.4,0,0.6c0.2,0.2,0.4,0.2,0.6,0c0.1-0.1,0.1-0.1,0.1-0.2
			c0.1,0.1,0.2,0.1,0.2,0.2C81,32.8,81,33.6,80.5,34.1 M93.8,47.7l0.3-0.4c0.1-0.1,0.1-0.2,0.1-0.3l-1-1c0,0,0,0,0-0.1
			c0-0.1,0-0.2,0-0.2l0.3-0.3c0.1-0.1,0.2-0.1,0.3,0l0.3,0.3l1.1-1.1l-0.7-0.7l-1.3,1.3c-0.1,0.1-0.2,0.1-0.3,0l-0.3-0.3
			c-0.1-0.1-0.1-0.2,0-0.3l1.3-1.3l-0.7-0.7L92.1,44c0,0,0.2,0.2,0.2,0.2c0.1,0.1,0.1,0.2,0,0.3l-0.1,0.1l0,0l-0.1,0.1
			c-0.1,0.1-0.2,0.1-0.3,0L81.3,34.2c0-0.1,0-0.1,0-0.1c0.3-0.7,0.2-1.6-0.3-2.1c0.7-0.7,0.7-1.9-0.1-2.6c-0.7-0.7-1.9-0.7-2.6-0.1
			c-0.8-0.7-1.9-0.6-2.6,0.1C75,30.1,75,31.3,75.7,32c-0.7,0.7-0.7,1.9,0.1,2.6c0.7,0.7,1.9,0.7,2.6,0.1c0.6,0.5,1.4,0.6,2.1,0.3
			c0,0,0.1,0,0.1-0.1l12.8,12.8C93.6,47.8,93.7,47.8,93.8,47.7"/>
		<polygon points="85.9,11.6 86.8,14.7 90.1,14.6 87.4,16.4 88.5,19.5 85.9,17.5 83.3,19.5 84.4,16.4 81.8,14.6 85,14.7 		"/>
		<polygon points="94.9,18.6 92,18.5 94.4,20.1 93.4,22.8 95.7,21.1 98,22.8 97.1,20.1 99.5,18.5 96.6,18.6 95.7,15.8 		"/>
		<polygon points="102.1,24.5 99.8,24.4 101.7,25.8 100.9,28 102.8,26.5 104.7,28 103.9,25.8 105.9,24.4 103.5,24.5 102.8,22.2 		
			"/>
		<polygon points="76.1,15.8 75.3,18.6 72.4,18.5 74.8,20.1 73.8,22.8 76.1,21.1 78.4,22.8 77.4,20.1 79.8,18.5 76.9,18.6 		"/>
		<polygon points="69,22.2 68.4,24.5 66,24.4 67.9,25.8 67.1,28 69,26.5 70.9,28 70.1,25.8 72.1,24.4 69.7,24.5 		"/>
		<path d="M24.3,61.8c0-0.9-0.7-1.4-2.2-1.4h-3v2.8h3.2C23.5,63.2,24.3,62.8,24.3,61.8 M23.7,57.6c0-0.8-0.7-1.3-1.9-1.3H19V59h2.6
			C22.9,59,23.7,58.5,23.7,57.6 M25.7,57.3c0,1.2-0.8,1.9-1.6,2.3c1.3,0.4,2.2,1.1,2.2,2.5c0,1.8-1.6,2.8-4,2.8h-5.1V54.7h4.9
			C24.3,54.7,25.7,55.7,25.7,57.3"/>
		<path d="M40.6,60.4c0,3-1.8,4.5-4.7,4.5c-2.8,0-4.7-1.5-4.7-4.5v-5.8h1.9v5.8c0,1.9,1,2.9,2.8,2.9c1.7,0,2.7-1,2.7-2.8v-5.8h1.9
			V60.4z"/>
		<polygon points="50.9,64.8 49,64.8 49,56.3 45.5,56.3 45.5,54.7 54.4,54.7 54.4,56.3 50.9,56.3 		"/>
		<polygon points="59.5,54.7 61.4,54.7 61.4,63.2 67.1,63.2 67.1,64.8 59.5,64.8 		"/>
		<polygon points="80.3,56.3 74.1,56.3 74.1,58.9 79.6,58.9 79.6,60.5 74.1,60.5 74.1,63.2 80.3,63.2 80.3,64.8 72.2,64.8 
			72.2,54.7 80.3,54.7 		"/>
		<path d="M90.4,56.3h-2.8v3.4h2.8c1.4,0,2.2-0.7,2.2-1.7C92.6,56.9,91.8,56.3,90.4,56.3 M92.7,64.8L90,61.3h-2.4v3.5h-1.9V54.7h4.9
			c2.5,0,4.1,1.2,4.1,3.2c0,1.7-1.1,2.7-2.6,3.1l3,3.8H92.7z"/>
		<polygon points="100.2,64.8 100.2,54.7 108,54.7 108,55.4 101,55.4 101,59.4 107.3,59.4 107.3,60.1 101,60.1 101,64.1 108,64.1 
			108,64.8 		"/>
		<polygon points="113.7,64.8 113.7,54.7 114.5,54.7 114.5,64.1 120.9,64.1 120.9,64.8 		"/>
		<rect x="126.5" y="54.7" width="0.8" height="10.1"/>
		<polygon points="137.5,55.4 137.5,64.8 136.7,64.8 136.7,55.4 132.9,55.4 132.9,54.7 141.3,54.7 141.3,55.4 		"/>
		<polygon points="146.8,64.8 146.8,54.7 154.6,54.7 154.6,55.4 147.6,55.4 147.6,59.4 153.9,59.4 153.9,60.1 147.6,60.1 
			147.6,64.1 154.7,64.1 154.7,64.8 		"/>
		<path d="M59.5,76.2H57v1.2h2.6c0.7,0,1-0.1,1.2-0.2c0.1-0.1,0.1-0.2,0.1-0.4c0-0.1,0-0.2-0.1-0.3C60.6,76.2,60.2,76.2,59.5,76.2
			 M59.5,74.6H57v1.1h2.5c0.8,0,1-0.1,1.2-0.2c0.1-0.1,0.1-0.2,0.1-0.3c0-0.1,0-0.2-0.1-0.3C60.6,74.7,60.3,74.6,59.5,74.6
			 M56.5,74.2h3.1c0.9,0,1.4,0.1,1.6,0.4c0.2,0.2,0.2,0.4,0.2,0.6c0,0.4-0.3,0.7-0.9,0.8c0.6,0.1,0.9,0.4,0.9,0.8
			c0,0.2-0.1,0.4-0.2,0.6c-0.3,0.3-0.8,0.4-1.7,0.4h-3.1V74.2z"/>
		<polygon points="65.2,75.9 67.2,74.2 68,74.2 68,74.2 65.5,76.3 65.5,77.8 64.9,77.8 64.9,76.3 62.4,74.2 62.4,74.2 63.2,74.2 		
			"/>
		<path d="M75.9,77.1C76,77,76,76.9,76,76.8c0-0.1,0-0.2-0.1-0.3c-0.1-0.1-0.4-0.2-1.8-0.3c-1.4-0.1-1.9-0.2-2.1-0.4
			c-0.1-0.1-0.2-0.3-0.2-0.6c0-0.2,0.1-0.5,0.2-0.7c0.2-0.2,0.8-0.4,2-0.4c1,0,1.8,0.2,2.3,0.3v0.5c-0.6-0.2-1.4-0.4-2.3-0.4
			c-1.1,0-1.4,0.1-1.6,0.3c-0.1,0.1-0.1,0.2-0.1,0.3s0,0.2,0.1,0.3c0.1,0.1,0.5,0.2,1.7,0.3c1.6,0.1,1.9,0.2,2.2,0.4
			c0.2,0.1,0.2,0.4,0.2,0.6c0,0.2-0.1,0.5-0.2,0.7c-0.2,0.2-0.7,0.5-2.1,0.5c-1,0-2-0.2-2.6-0.4V77c0.6,0.2,1.6,0.5,2.6,0.5
			C75.4,77.4,75.7,77.3,75.9,77.1"/>
		<path d="M79,76.4h2.8l-1.4-2L79,76.4z M80.8,74.2l2.6,3.6h-0.7l-0.6-0.9h-3.4l-0.6,0.9h-0.6l2.6-3.6H80.8z"/>
		<polygon points="89.3,77.3 89.3,74.2 89.9,74.2 89.9,77.8 89.1,77.8 85.3,74.6 85.3,77.8 84.7,77.8 84.7,74.2 85.5,74.2 		"/>
		<path d="M94.2,77.3c1,0,1.5-0.2,1.7-0.4c0.2-0.2,0.3-0.5,0.3-0.9c0-0.4-0.1-0.7-0.3-0.9c-0.2-0.2-0.8-0.4-1.7-0.4h-2v2.7H94.2z
			 M96.4,77.2c-0.3,0.3-0.9,0.6-2.2,0.6h-2.5v-3.6h2.5c1.3,0,1.9,0.3,2.2,0.6c0.3,0.3,0.5,0.7,0.5,1.2
			C96.9,76.5,96.7,76.9,96.4,77.2"/>
		<path d="M99.3,76.4h2.8l-1.4-2L99.3,76.4z M101,74.2l2.6,3.6H103l-0.6-0.9h-3.4l-0.6,0.9h-0.6l2.6-3.6H101z"/>
		<polygon points="109.4,77.3 109.4,77.8 104.9,77.8 104.9,74.2 105.5,74.2 105.5,77.3 		"/>
		<path d="M114.6,77.1c0.1-0.1,0.1-0.2,0.1-0.3c0-0.1,0-0.2-0.1-0.3c-0.1-0.1-0.4-0.2-1.8-0.3c-1.4-0.1-1.9-0.2-2.1-0.4
			c-0.1-0.1-0.2-0.3-0.2-0.6c0-0.2,0.1-0.5,0.2-0.7c0.2-0.2,0.8-0.4,2-0.4c1,0,1.8,0.2,2.3,0.3v0.5c-0.6-0.2-1.4-0.4-2.3-0.4
			c-1.1,0-1.4,0.1-1.6,0.3c-0.1,0.1-0.1,0.2-0.1,0.3s0,0.2,0.1,0.3c0.1,0.1,0.5,0.2,1.7,0.3c1.6,0.1,1.9,0.2,2.2,0.4
			c0.2,0.1,0.2,0.4,0.2,0.6c0,0.2-0.1,0.5-0.2,0.7c-0.2,0.2-0.7,0.5-2.1,0.5c-1,0-2-0.2-2.6-0.4V77c0.6,0.2,1.6,0.5,2.6,0.5
			C114.1,77.4,114.5,77.3,114.6,77.1"/>
	</g>
</g>
<g id="Layer_2">
	<g>
		<g>
			<path d="M16.9,61.5c-3.2,0-5.5-2.4-5.5-5.5c0-3.1,2.3-5.6,5.6-5.6c2,0,3.2,0.7,4.2,1.7L20,53.4c-0.9-0.8-1.8-1.3-3-1.3
				c-2.1,0-3.6,1.7-3.6,3.8c0,2.1,1.5,3.8,3.6,3.8c1.3,0,2.2-0.5,3.1-1.4l1.2,1.2C20.2,60.7,18.9,61.5,16.9,61.5z"/>
			<path d="M26.3,50.5h1.9v9h5.7v1.7h-7.6V50.5z"/>
			<path d="M47.7,56.6c0,3.2-1.8,4.8-4.7,4.8c-2.8,0-4.6-1.6-4.6-4.7v-6.2h1.9v6.1c0,2,1,3.1,2.7,3.1c1.7,0,2.7-1,2.7-3v-6.2h1.9
				V56.6z"/>
			<path d="M61.8,53.3c0,1.3-0.7,2-1.5,2.4c1.3,0.4,2.2,1.2,2.2,2.6c0,1.9-1.6,3-4,3h-5V50.5h4.9C60.4,50.5,61.8,51.6,61.8,53.3z
				 M59.9,53.6c0-0.9-0.7-1.4-1.9-1.4h-2.7V55h2.6C59,55,59.9,54.6,59.9,53.6z M60.5,58.1c0-0.9-0.7-1.5-2.2-1.5h-3v2.9h3.2
				C59.7,59.6,60.5,59.1,60.5,58.1z"/>
			<path d="M71.4,61.4c-1.7,0-3.1-0.6-4.4-1.7l0.5-0.6c1.2,1.1,2.3,1.6,3.9,1.6c1.6,0,2.7-0.9,2.7-2.1v0c0-1.1-0.6-1.8-3.1-2.3
				c-2.6-0.5-3.7-1.4-3.7-3v0c0-1.6,1.5-2.8,3.5-2.8c1.6,0,2.6,0.4,3.7,1.3l-0.5,0.6c-1-0.9-2-1.2-3.2-1.2c-1.6,0-2.6,0.9-2.6,2v0
				c0,1.1,0.6,1.8,3.2,2.4c2.5,0.5,3.6,1.4,3.6,3v0C75,60.2,73.5,61.4,71.4,61.4z"/>
			<path d="M89.5,61.3l-1.4-3h-6.4l-1.4,3h-0.8l5.1-10.8h0.8l5.1,10.8H89.5z M84.9,51.3l-2.9,6.2h5.7L84.9,51.3z"/>
			<path d="M104.1,61.3l-7.6-9.6v9.6h-0.8V50.5h0.8l7.5,9.4v-9.4h0.8v10.8H104.1z"/>
			<path d="M114.5,61.3h-3.6V50.5h3.6c3.4,0,5.8,2.3,5.8,5.3v0C120.3,58.9,117.9,61.3,114.5,61.3z M119.4,55.9
				c0-2.6-1.9-4.6-4.9-4.6h-2.8v9.3h2.8C117.5,60.5,119.4,58.5,119.4,55.9L119.4,55.9z"/>
			<path d="M134.4,61.3l-1.4-3h-6.4l-1.4,3h-0.8l5.1-10.8h0.8l5.1,10.8H134.4z M129.8,51.3l-2.9,6.2h5.7L129.8,51.3z"/>
			<path d="M140.6,61.3V50.5h0.8v10h6.4v0.7H140.6z"/>
			<path d="M156.8,61.4c-1.7,0-3.1-0.6-4.4-1.7l0.5-0.6c1.2,1.1,2.3,1.6,3.9,1.6c1.6,0,2.7-0.9,2.7-2.1v0c0-1.1-0.6-1.8-3.1-2.3
				c-2.6-0.5-3.7-1.4-3.7-3v0c0-1.6,1.5-2.8,3.5-2.8c1.6,0,2.6,0.4,3.7,1.3l-0.5,0.6c-1-0.9-2-1.2-3.2-1.2c-1.6,0-2.6,0.9-2.6,2v0
				c0,1.1,0.6,1.8,3.2,2.4c2.5,0.5,3.6,1.4,3.6,3v0C160.4,60.2,158.9,61.4,156.8,61.4z"/>
		</g>
		<g>
			<path d="M27.2,72.6c-0.3-0.3-0.5-0.8-0.5-1.3c0-0.5,0.2-1,0.5-1.3c0.4-0.4,1.1-0.7,2.5-0.7c1.1,0,1.9,0.2,2.4,0.5v0.6
				c-0.5-0.3-1.4-0.6-2.4-0.6c-0.9,0-1.6,0.2-2,0.5c-0.2,0.2-0.4,0.6-0.4,1c0,0.4,0.1,0.8,0.4,1c0.4,0.4,1.1,0.5,2,0.5
				c1,0,1.8-0.2,2.4-0.5v0.5c-0.5,0.2-1.3,0.5-2.4,0.5C28.3,73.3,27.6,73,27.2,72.6z"/>
			<path d="M39,69.9c0.3,0.3,0.5,0.8,0.5,1.4c0,0.6-0.2,1-0.5,1.3c-0.4,0.4-1.1,0.7-2.5,0.7c-1.4,0-2.2-0.3-2.5-0.7
				c-0.3-0.3-0.5-0.8-0.5-1.4c0-0.6,0.2-1,0.5-1.4c0.4-0.4,1.1-0.7,2.5-0.7C37.9,69.2,38.6,69.6,39,69.9z M34.4,70.2
				c-0.2,0.2-0.4,0.5-0.4,1c0,0.5,0.1,0.8,0.4,1c0.3,0.3,0.9,0.5,2,0.5c1.1,0,1.8-0.2,2.1-0.5c0.2-0.2,0.4-0.5,0.4-1
				c0-0.5-0.1-0.8-0.4-1c-0.3-0.3-0.9-0.5-2-0.5C35.3,69.7,34.7,70,34.4,70.2z"/>
			<path d="M46,72.7v-3.3h0.6v3.8h-0.8l-4-3.4v3.4h-0.6v-3.8H42L46,72.7z"/>
			<path d="M48.8,72.6c-0.3-0.3-0.5-0.8-0.5-1.3c0-0.5,0.2-1,0.5-1.3c0.4-0.4,1.1-0.7,2.5-0.7c1.1,0,1.9,0.2,2.4,0.5v0.6
				c-0.5-0.3-1.4-0.6-2.4-0.6c-0.9,0-1.6,0.2-2,0.5c-0.2,0.2-0.4,0.6-0.4,1c0,0.4,0.1,0.8,0.4,1c0.4,0.4,1.1,0.5,2,0.5
				c1,0,1.8-0.2,2.4-0.5v0.5c-0.5,0.2-1.3,0.5-2.4,0.5C49.9,73.3,49.2,73,48.8,72.6z"/>
			<path d="M55.5,73.2v-3.8H56v3.8H55.5z"/>
			<path d="M62.9,71v0.5h-4.3v1.2H63v0.5h-4.9v-3.8H63v0.5h-4.4V71H62.9z"/>
			<path d="M67.9,69.4c1.1,0,1.5,0.1,1.7,0.4c0.2,0.2,0.3,0.5,0.3,0.8c0,0.3-0.1,0.6-0.3,0.8c-0.2,0.2-0.6,0.4-1.5,0.4l2.2,1.3v0
				h-0.9l-2.2-1.4h-1.9v1.4h-0.6v-3.8H67.9z M65.3,71.4h2.6c0.8,0,1.1-0.1,1.2-0.3c0.1-0.1,0.2-0.3,0.2-0.5c0-0.2-0.1-0.4-0.2-0.5
				c-0.2-0.2-0.5-0.2-1.2-0.2h-2.6V71.4z"/>
			<path d="M77.3,71.2v0.4c0,0.5-0.1,0.9-0.4,1.2c-0.4,0.4-1.1,0.6-2.4,0.6c-1.5,0-2.2-0.3-2.5-0.7c-0.3-0.3-0.5-0.8-0.5-1.3
				c0-0.5,0.2-1,0.5-1.3c0.4-0.4,1-0.7,2.5-0.7c1.2,0,2.1,0.2,2.5,0.4v0.6c-0.5-0.3-1.5-0.5-2.5-0.5c-1.2,0-1.7,0.2-2,0.5
				c-0.2,0.2-0.4,0.6-0.4,1c0,0.5,0.1,0.8,0.4,1c0.3,0.3,0.8,0.5,2.1,0.5c1,0,1.6-0.2,1.9-0.4c0.2-0.2,0.3-0.5,0.3-0.7H74v-0.5H77.3
				z"/>
			<path d="M83.8,71v0.5h-4.3v1.2h4.4v0.5H79v-3.8h4.9v0.5h-4.4V71H83.8z"/>
			<path d="M91.6,69.4c1.1,0,1.5,0.1,1.7,0.4c0.2,0.2,0.3,0.5,0.3,0.8c0,0.3-0.1,0.6-0.3,0.8c-0.2,0.2-0.6,0.4-1.5,0.4l2.2,1.3v0
				h-0.9L91,71.8h-1.9v1.4h-0.6v-3.8H91.6z M89.1,71.4h2.6c0.8,0,1.1-0.1,1.2-0.3c0.1-0.1,0.2-0.3,0.2-0.5c0-0.2-0.1-0.4-0.2-0.5
				c-0.2-0.2-0.5-0.2-1.2-0.2h-2.6V71.4z"/>
			<path d="M100.4,71v0.5h-4.3v1.2h4.4v0.5h-4.9v-3.8h4.9v0.5h-4.4V71H100.4z"/>
			<path d="M107.1,72.6c-0.3,0.3-0.9,0.6-2.3,0.6h-2.7v-3.8h2.7c1.3,0,2,0.3,2.3,0.6c0.3,0.3,0.5,0.8,0.5,1.3
				C107.6,71.8,107.5,72.2,107.1,72.6z M104.8,72.7c1,0,1.6-0.2,1.8-0.5c0.2-0.2,0.4-0.5,0.4-1c0-0.4-0.1-0.8-0.4-1
				c-0.3-0.3-0.8-0.5-1.8-0.5h-2.1v2.9H104.8z"/>
			<path d="M114.2,71v0.5h-4.3v1.2h4.4v0.5h-4.9v-3.8h4.9v0.5h-4.4V71H114.2z"/>
			<path d="M120.7,71.1v0.5h-4.2v1.6H116v-3.8h4.8v0.5h-4.2v1.2H120.7z"/>
			<path d="M122.5,73.2v-3.8h0.6v3.8H122.5z"/>
			<path d="M130,72.7v-3.3h0.6v3.8h-0.8l-4-3.4v3.4h-0.6v-3.8h0.9L130,72.7z"/>
			<path d="M137.4,71v0.5h-4.3v1.2h4.4v0.5h-4.9v-3.8h4.9v0.5h-4.4V71H137.4z"/>
			<path d="M144.2,72.6c-0.3,0.3-0.9,0.6-2.3,0.6h-2.7v-3.8h2.7c1.3,0,2,0.3,2.3,0.6c0.3,0.3,0.5,0.8,0.5,1.3
				C144.7,71.8,144.5,72.2,144.2,72.6z M141.9,72.7c1,0,1.6-0.2,1.8-0.5c0.2-0.2,0.4-0.5,0.4-1c0-0.4-0.1-0.8-0.4-1
				c-0.3-0.3-0.8-0.5-1.8-0.5h-2.1v2.9H141.9z"/>
		</g>
		<g>
			<g>
				<g>
					<polygon fill="#030302" points="75.1,42.2 75.1,43.1 96.7,43.1 96.7,42 94.3,40.1 77.6,40.1 					"/>
				</g>
				<g>
					<g>
						<path fill="#030302" d="M95.3,39.6c0-0.4,0-0.8,0-1.2l0,0c0,0-0.3,0.1-0.7-0.6c-0.3-0.4-0.4-1.1-0.4-1.3c0-0.3,0-0.5-0.1-0.8
							c0-0.3-0.1-0.5-0.2-0.8c-0.1-0.3-0.3-0.5-0.4-0.7c-0.3-0.4-0.8-0.8-1.3-1c-0.1,0-0.1-0.1-0.2-0.1c-0.1,0-0.1-0.1-0.2-0.1
							c-0.1-0.1-0.3-0.1-0.4-0.1c-0.3-0.1-0.5-0.2-0.8-0.2c-0.5-0.1-1-0.2-1.6-0.3c-1-0.1-2.1-0.2-3.1-0.2c-1,0-2.1,0-3.1,0.2
							c-0.5,0.1-1,0.1-1.6,0.3c-0.3,0.1-0.5,0.1-0.8,0.2c-0.1,0-0.3,0.1-0.4,0.2c-0.1,0.1-0.3,0.1-0.4,0.2c-0.5,0.3-0.9,0.6-1.3,1
							c-0.2,0.2-0.3,0.5-0.4,0.7c-0.1,0.3-0.2,0.5-0.2,0.8c-0.1,0.5-0.1,1.1-0.2,1.5c-0.1,0.2-0.2,0.5-0.4,0.7
							C77.1,38,77,38.1,77,38.2c0,0-0.4,0.2-0.4,0.2c0,0,0,1.2,0,1.2L95.3,39.6z M95.1,39.3c-1.6,0-18.2,0-18.2,0c0,0,0-0.8,0-0.8
							c1,0,10,0,10,0s-6.5-1.2-6.5-3.4c0-2.2,5.1-2.3,5.6-2.3c1,0,2,0,3.1,0.1c0.5,0.1,1,0.1,1.5,0.2c0.3,0,0.5,0.1,0.7,0.2
							c0.1,0,0.2,0.1,0.4,0.1c0.1,0,0.1,0,0.2,0.1c0.1,0,0.1,0.1,0.2,0.1c0.4,0.2,0.9,0.5,1.2,0.9c0.2,0.2,0.3,0.4,0.4,0.6
							c0.1,0.2,0.2,0.5,0.2,0.7c0.1,0.5,0.1,1.5,0.5,2.1c0.5,0.7,0.8,0.7,0.8,0.7S95.1,39.3,95.1,39.3z"/>
					</g>
				</g>
				<g>
					<rect x="84.6" y="39.4" fill="#030302" width="2.7" height="1"/>
				</g>
				<g>
					<g>
						<rect x="85.1" y="29" fill="#030302" width="1.6" height="0.3"/>
					</g>
					<g>
						<rect x="85.5" y="29.1" fill="#030302" width="0.9" height="1.7"/>
					</g>
					<g>
						<rect x="84.8" y="31.5" fill="#030302" width="2.2" height="0.7"/>
					</g>
					<g>
						<g>
							<path fill="#030302" d="M87,30.8c0,0.6-0.5,1.1-1.1,1.1c-0.6,0-1.1-0.5-1.1-1.1c0-0.6,0.5-1.1,1.1-1.1
								C86.5,29.7,87,30.2,87,30.8z"/>
						</g>
						<g>
							<circle fill="#FFFFFF" cx="86.4" cy="30.5" r="0.3"/>
						</g>
					</g>
				</g>
			</g>
		</g>
		<g>
			<g>
				<polygon points="85.9,14.1 86.9,17.4 90.4,17.3 87.5,19.3 88.7,22.5 85.9,20.4 83.2,22.5 84.4,19.3 81.5,17.3 85,17.4 				"/>
			</g>
			<g>
				<polygon points="95.5,21.6 92.4,21.5 95,23.2 93.9,26.1 96.4,24.2 98.8,26.1 97.8,23.2 100.3,21.5 97.2,21.6 96.4,18.6 				"/>
			</g>
			<g>
				<polygon points="103.2,27.9 100.6,27.8 102.7,29.2 101.9,31.6 103.9,30 105.9,31.6 105,29.2 107.1,27.8 104.6,27.9 103.9,25.4 
									"/>
			</g>
			<g>
				<polygon points="75.5,18.6 74.6,21.6 71.5,21.5 74.1,23.2 73,26.1 75.5,24.2 77.9,26.1 76.9,23.2 79.4,21.5 76.4,21.6 				"/>
			</g>
			<g>
				<polygon points="68,25.4 67.3,27.9 64.7,27.8 66.8,29.2 66,31.6 68,30 70,31.6 69.1,29.2 71.2,27.8 68.7,27.9 				"/>
			</g>
		</g>
	</g>
</g>
</svg>
