<?xml version="1.0" encoding="utf-8"?>
<!-- Generator: Adobe Illustrator 16.0.0, SVG Export Plug-In . SVG Version: 6.00 Build 0)  -->
<!DOCTYPE svg PUBLIC "-//W3C//DTD SVG 1.1//EN" "http://www.w3.org/Graphics/SVG/1.1/DTD/svg11.dtd">
<svg version="1.1" id="Layer_1" xmlns="http://www.w3.org/2000/svg" xmlns:xlink="http://www.w3.org/1999/xlink" x="0px" y="0px"
	 width="2366px" height="1024px" viewBox="0 0 2366 1024" enable-background="new 0 0 2366 1024" xml:space="preserve">
<path d="M418.81,96.636c-21.762,32.37-90.81,92.872-128.583,116.146c-14.332,8.826-30.46-10.438-42.4-8.45
	c-18.474,3.084-26.094,24.244-21.402,35.732c39.506,96.668,95.09,179.318,128.475,276.682c9.876,28.804,9.478,43.39-13.259,69.442
	C305.214,627.902,178.372,723.15,73.676,741.058c-23.348,3.99-74.154-59.104-55.958-73.834
	C80.01,616.766,198.852,557.956,220.6,564.622c6.016,1.846,14.064,17.976,18.528,17.514c13.194-1.376,23.584-6.006,14.634-24.966
	c0,0-105.568-175.274-130.036-275.548c-16.262-66.64,44.018-123.626,87.414-158.182c71.88-57.246,168.578-74.218,184.234-66.778
	c11.316,5.39,26.998,15.844,30.434,25.37c0.849,2.368-4.699,11.182-7.002,14.6l0,0L418.81,96.636z M1273.762,551.956
	c1.358-12.842-3.149-28.188,2.772-76.408c-52.011,36.559-96.586,74.25-103.914,134.64c-0.462,3.818,7.164,16.444,15.05,11.431
	c34.689-22.092,73.288-54.86,86.096-69.662l0,0H1273.762z M1999.322,247.168c-41.971,39.702-84.084,139.096-78.96,192.366
	C1957.122,396.686,2004.038,302.74,1999.322,247.168L1999.322,247.168z M1836.084,535.17c-0.028-20.1,2.134-31.284,3.064-56.194
	c4.392-118.634,74.241-259.82,147.903-312.614c22.683-16.262,68.179-13.186,75.286,18.006
	c21.852,95.976-49.958,215.978-104.404,296.668c-18.195,26.99-26.462,39.934-39.99,59.294c-11.661,16.7-0.634,57.47,7.459,71.096
	c24.409,41.204,84.718-4.09,109.222-26.392c36.396-33.141,68.063-74.218,88.412-107.309c0.914-1.478-6.99-16.67-6.99-16.67
	c-1.472,1.318,43.353-53.934,55.044-70.771c24.71,12.69,56.74,51.52,64.744,71.644c16.063,40.452,11.762,81.723-9.715,124.49
	c-6.823,13.596-8.146,15.592-11.993,21.836c30.04-18.012,79.256-81.71,81.554-81.154c9.656,2.347,32.326,19.068,31.482,20.332
	c-53.828,81.687-123.062,154.13-213.893,165.256c-3.818,0.477-30.902-32.825-23.727-38.657
	c20.225-16.444,54.246-58.851,66.23-87.778c11.544-27.798,11.744-38.576,9.448-55.502c-1.935-14.145-9.218-5.134-9.265-5.168
	c-17.861,25.746-44.996,63.47-71.934,92.39c-59.832,64.202-92.404,76.014-106.189,80.422c-65.94,21.11-100.599-11.43-116.261-34.878
	c-20.25-30.322-12.538-65.441-24.966-56.32c-23.498,25.37-96.474,102.895-136.532,94.562c-65.93-13.714-25.636-96.948-70.754-87.85
	c-55.989,11.273-134.916,102.046-134.916,102.046s-39.569-23.566-52.79-30.242c-2.332-1.185,2.311-42.612,1.082-41.648
	c-61.85,49.322-86.376,47.685-105.025,36.423c-26.463-15.994-37.662-38.809-49.885-66.658
	c-32.594,42.294-105.596,92.716-130.808,103.222c-10.188,4.254-72.422-27.032-76.44-70.522
	c-33.115,9.887-56.344,12.622-80.046-44.413c-8.804-21.187-16.657-39.771-24.044-62.206
	c-33.452,51.067-111.861,148.088-160.514,175.233c-10.89,6.072-62.528-24.616-58.254-38.588
	c5.288-17.282,18.904-84.729,20.018-101.462c-5.938,8.266-12.992,16.658-19.731,24.052C744.686,613.18,670.1,710.976,625.838,701.76
	c-65.938-13.714-25.588-97.702-70.721-88.616c-55.976,11.274-135.779,102.812-135.779,102.812
	c-3.929,2.99-38.761-23.566-51.962-30.242c-2.339-1.184,2.388-42.19,1.155-41.226c-65.838,38.67-38.321,46.746-68.147,17.048
	c-3.478-0.962,48.558-53.032,70.438-73.442c35.021-32.654,63.65-81.188,114.534-124.83c36.558-31.357,76.526-52.858,109.477-62.146
	c21.478-6.048,43.436,34.13,58.628,57.342c1.691,2.598-10.179,3.99-27.736,13.39c-69.082,36.966-100.082,62.788-155.26,129.98
	c61.302-48.826,78.966-19.126,99.245-70.692c22.595-0.094,52.963,0.106,73.03,0c1.057,0-6.158,28.338-4.438,41.96
	c1.958,15.473,9.548,33.76,25.323,34.844c18.788,1.276,40.891-16.552,71.293-47.602c17.548-20.1,42.27-56.058,65.125-102.32
	c10.898-22.056,19.158-42.77,23.267-48.916c6.254-9.348,56.244,18.842,66.523,28.13c0.702,0.621,0.095,2.331,0.528,3.592
	c-4.004,44.8-19.032,107.42-25.466,135.754c86.852-79.116,117.394-152.866,132.538-156.942c6.808-1.816,19.006,3.288,18.966,3.288
	c10.624,4.17,12.354,89.288,47.084,155.612c11.74,22.438,19.252,13.548,32.89-10.004c21.711-36.278,64.166-79.204,110.782-115.555
	c23.388-18.248,58.269-39.25,85.893-50.752c13.073-81.016,72.281-198.206,128.846-240.904c13.888-10.478,46.616,5.8,45.91,19.026
	c-4.843,91.528-37.136,179.884-81.011,262.23c-14.487,27.186-28.054,52.422-30.077,67.594c-5.204,38.818,0.302,75.852,24.47,90.04
	c26.452,15.528,59.868-5.818,78.16-26.302c29.722-31.354,56.672-73.276,100.254-110.652c36.558-31.358,76.525-52.858,109.478-62.146
	c21.479-6.048,43.442,34.13,58.616,57.342c1.702,2.598-10.166,3.989-27.726,13.39c-69.07,36.966-100.088,62.788-155.261,129.98
	C1606,553,1623.682,582.7,1643.968,531.134c22.58-0.094,52.95,0.106,73.025,0c1.066,0-6.153,28.338-4.439,41.96
	c1.972,15.472,9.548,33.76,25.33,34.844c18.231,1.271,69.752-41.932,98.196-72.75l0,0L1836.084,535.17z M2200.384,712.908
	c-2.312,2.332-3.478,5.147-3.478,8.438c0,3.332,1.158,6.145,3.466,8.486s5.11,3.514,8.428,3.514c3.304,0,6.108-1.168,8.429-3.514
	c2.319-2.346,3.478-5.154,3.478-8.486c0-3.294-1.158-6.107-3.478-8.438c-2.332-2.332-5.133-3.5-8.429-3.5
	C2205.518,709.408,2202.712,710.582,2200.384,712.908L2200.384,712.908z M2218.6,731.174c-2.699,2.723-5.983,4.072-9.804,4.072
	c-3.834,0-7.09-1.35-9.792-4.072c-2.666-2.714-4.01-5.981-4.01-9.828c0-3.817,1.357-7.067,4.048-9.766
	c2.7-2.688,5.948-4.048,9.763-4.048c3.83,0,7.105,1.357,9.804,4.048c2.714,2.688,4.06,5.948,4.06,9.766
	c-0.004,3.84-1.354,7.106-4.063,9.828l0,0H2218.6z M2211.393,716.108c-0.66-0.381-1.74-0.582-3.209-0.582h-2.283v5.52h2.397
	c1.148,0,1.984-0.12,2.552-0.34c1.057-0.414,1.568-1.216,1.568-2.386c0-1.097-0.332-1.828-1.021-2.212l0,0H2211.393z M2208.53,713.7
	c1.888,0,3.268,0.196,4.149,0.558c1.578,0.648,2.351,1.948,2.351,3.842c0,1.358-0.486,2.351-1.484,2.99
	c-0.534,0.35-1.266,0.594-2.204,0.74c1.194,0.184,2.078,0.696,2.618,1.496c0.556,0.8,0.836,1.592,0.836,2.35v1.116
	c0,0.36,0.008,0.729,0.036,1.13c0.027,0.39,0.06,0.658,0.126,0.79l0.094,0.184h-2.506c-0.009-0.044-0.028-0.105-0.036-0.147
	s-0.028-0.094-0.044-0.16l-0.06-0.486v-1.216c0-1.75-0.477-2.918-1.423-3.49c-0.569-0.325-1.567-0.485-2.989-0.485h-2.104v5.994
	h-2.687V713.7l5.328-0.004L2208.53,713.7z"/>
</svg>
