<?xml version="1.0" encoding="utf-8"?>
<!-- Generator: Adobe Illustrator 17.1.0, SVG Export Plug-In . SVG Version: 6.00 Build 0)  -->
<!DOCTYPE svg PUBLIC "-//W3C//DTD SVG 1.1//EN" "http://www.w3.org/Graphics/SVG/1.1/DTD/svg11.dtd">
<svg version="1.1" id="Layer_1" xmlns="http://www.w3.org/2000/svg" xmlns:xlink="http://www.w3.org/1999/xlink" x="0px" y="0px"
	 viewBox="0 0 150.5 150.5" enable-background="new 0 0 150.5 150.5" xml:space="preserve">
<g>
	<defs>
		<rect id="SVGID_1_" width="150.5" height="150.5"/>
	</defs>
	<clipPath id="SVGID_2_">
		<use xlink:href="#SVGID_1_"  overflow="visible"/>
	</clipPath>
	<path clip-path="url(#SVGID_2_)" d="M75.2,0C33.7,0,0,33.7,0,75.2c0,41.6,33.7,75.2,75.2,75.2c41.6,0,75.2-33.7,75.2-75.2
		C150.5,33.7,116.8,0,75.2,0 M75.2,40.7c8.7,0,15.7,7,15.7,15.7s-7,15.7-15.7,15.7c-8.7,0-15.7-7-15.7-15.7S66.6,40.7,75.2,40.7
		 M135.1,51.4c0,0-39.7,22.3-53.3,68.3h-6.5h-6.5c-13.7-46-53.3-68.3-53.3-68.3c-3-1.9,3.7-1.3,3.7-1.3
		c28.7,4.3,56.3,42.3,56.2,45.7c-0.2-3.3,27.5-41.3,56.2-45.7C131.4,50.1,138.1,49.5,135.1,51.4"/>
</g>
</svg>
