<?xml version="1.0" encoding="utf-8"?>
<!-- Generator: Adobe Illustrator 17.1.0, SVG Export Plug-In . SVG Version: 6.00 Build 0)  -->
<!DOCTYPE svg PUBLIC "-//W3C//DTD SVG 1.1//EN" "http://www.w3.org/Graphics/SVG/1.1/DTD/svg11.dtd">
<svg version="1.1" id="Layer_2_1_" xmlns="http://www.w3.org/2000/svg" xmlns:xlink="http://www.w3.org/1999/xlink" x="0px" y="0px"
	 viewBox="0 0 612 792" enable-background="new 0 0 612 792" xml:space="preserve">
<g>
	<g>
		<path d="M270.3,44.8H260v-5.6h27v5.6H277v36.9h-6.7V44.8z"/>
		<path d="M291.3,39.3h6.7v17.1h12.7V39.3h6.7v42.9h-6.7V62.3h-12.7v19.8h-6.7V39.3z"/>
		<path d="M324.3,39.3h23v5.6H331v11.9h15.5v5.6H331v13.5h16.7v5.6h-23.4V39.3z"/>
		<path d="M151.6,220.2h15.9v39.3c0,11.1-2.4,19.4-6.7,24.6c-4.4,5.2-11.5,7.9-21,7.9c-20.2,0-30.2-10.7-30.2-32.1V130.5
			c0-21.8,9.9-32.9,30.2-32.9c18.7,0,27.8,10.7,27.8,32.1v33.7h-15.9v-33.3c0-5.2-0.8-8.7-2.4-11.1c-1.6-2.4-4.8-3.6-9.1-3.6
			c-8.3,0-12.3,4.8-12.3,14.7v129.4c0,9.9,4,15.1,12.3,15.1c4.4,0,7.5-1.2,9.1-3.6c1.6-2.4,2.8-6.3,2.8-11.5v-39.3H151.6z"/>
		<path d="M178.2,290.1V100h17.5v172.6h34.1v17.5H178.2z"/>
		<path d="M237.7,130.1c0-21.4,9.9-32.1,29.8-32.1s30.2,10.7,30.2,32.1v129.4c0,21.4-9.9,32.1-30.2,32.1
			c-19.8,0-29.8-10.7-29.8-32.1V130.1z M279.8,130.1c0-9.5-4-14.7-12.3-14.7s-12.3,4.8-12.3,14.7v129.4c0,9.9,4,15.1,12.3,15.1
			s12.3-5.2,12.3-15.1V130.1z"/>
		<path d="M349.3,233.7c0-2.8,0-5.2-0.4-7.1c-0.4-2-0.4-3.6-0.8-4.8c-0.4-1.2-1.2-2.8-2-4c-0.8-1.2-1.6-2.4-2.8-4
			c-2.4-2.8-4.8-5.2-6.7-7.5c-2.4-2.4-4.8-4.8-7.1-7.1c-2.4-2.4-5.2-4.8-7.5-7.5c-2.4-2.8-5.2-5.6-7.9-9.1
			c-3.2-3.6-4.8-7.1-5.6-11.1c-0.4-4-0.8-8.3-0.8-13.9v-28.6c0-21,9.9-31.3,29.4-31.3c10.7,0,18.3,2.8,22.2,7.5
			c4.4,5.2,6.3,13.1,6.3,23.8v34.5h-15.9v-31.7c0-4.8-0.8-8.7-2.4-11.5c-1.6-2.8-4.8-4.4-9.5-4.4c-8.3,0-12.3,4.4-12.3,13.5v28.2
			c0,4,0.4,6.7,0.8,8.7s1.6,4,3.2,6c4.8,6,9.5,11.1,14.3,15.5c4.8,4.4,9.9,9.5,14.7,15.5c1.6,2,3.2,4,4,6c1.2,2,2,4,2.4,6.3
			c0.8,2.4,1.2,4.8,1.2,7.9c0.4,2.8,0.4,6.3,0.4,9.9v27.4c0,10.3-2.4,17.9-6.7,23.4c-4.4,5.6-12.3,7.9-22.6,7.9s-17.9-2.8-22.6-7.9
			c-4.8-5.6-7.1-13.1-7.1-23.4v-40.5h16.7v37.7c0,4.8,0.8,9.1,2.8,11.9c1.6,3.2,5.2,4.8,9.5,4.8c4.4,0,7.5-1.2,9.5-3.6
			c2-2.4,2.8-6,2.8-10.3v-27H349.3z"/>
		<path d="M377.4,290.1V100h50.4v17.9h-32.9v66.7h23V202h-23v70.6H429v17.5L377.4,290.1L377.4,290.1z"/>
		<path d="M483.4,290.1c-2-15.1-4-29.4-6.3-43.6c-2-13.9-4.4-28.2-7.1-42.9c-0.8,0-1.6,0.4-2,0.4c-0.8,0-1.2,0-2,0h-9.5v86.1h-17.5
			V100h29c11.1,0,19.4,2.8,25,7.5c5.6,5.2,8.3,13.9,8.3,26.6v37.7c0,13.9-4.8,23-13.9,27.8c3.2,15.5,6,30.6,8.7,45.2
			c2.8,14.7,5.2,29.8,7.5,44.8h-20.2V290.1z M483,136.5c0-6.7-1.2-11.9-3.2-14.7c-2-2.8-6-4-12.3-4H456v70.2h11.5
			c5.6,0,9.1-1.2,11.5-4c2.4-2.4,3.6-6.3,3.6-11.9v-35.7H483z"/>
		<path d="M128.2,349.6l-19-44.4h13.1l12.3,31.7l12.7-31.7h12.3l-19.4,44.4v28.6h-11.5v-28.6H128.2z"/>
		<path d="M160,341.6c0-26.2,7.5-38.1,24.2-38.1s24.2,11.9,24.2,38.1c0,26.2-7.5,38.1-24.2,38.1S160,367.8,160,341.6z M196.9,341.2
			c0-24.6-5.6-29-12.7-29c-7.1,0-12.7,4.4-12.7,29c0,25.4,5.6,29.4,12.7,29.4C191.3,371,196.9,366.6,196.9,341.2z"/>
		<path d="M228.6,305.1v52.4c0,9.1,3.6,13.5,10.7,13.5c7.1,0,10.7-4,10.7-13.5v-52.4h11.5v51.6c0,17.1-8.3,23-22.2,23
			s-22.6-6.3-22.6-23v-51.6H228.6z"/>
		<path d="M296.1,305.1h11.5v63.5h28.2v9.9h-40.1v-73.4H296.1z"/>
		<path d="M339.3,341.6c0-26.2,7.5-38.1,24.2-38.1s24.2,11.9,24.2,38.1c0,26.2-7.5,38.1-24.2,38.1S339.3,367.8,339.3,341.6z
			 M376.2,341.2c0-24.6-5.6-29-12.7-29c-7.1,0-12.7,4.4-12.7,29c0,25.4,5.6,29.4,12.7,29.4C370.7,371,376.2,366.6,376.2,341.2z"/>
		<path d="M394.9,341.6c0-26.2,7.5-38.1,24.2-38.1c16.7,0,24.2,11.9,24.2,38.1c0,26.2-7.5,38.1-24.2,38.1
			C402.4,379.7,394.9,367.8,394.9,341.6z M431.8,341.2c0-24.6-5.6-29-12.7-29c-7.1,0-12.7,4.4-12.7,29c0,25.4,5.6,29.4,12.7,29.4
			C426.2,371,431.8,366.6,431.8,341.2z"/>
		<path d="M452.4,305.1h11.5v31.7h0.4l22.2-31.7h12.7l-21,31l23.4,42.5h-13.1l-17.9-32.9l-6.3,9.1v23.8h-11.5v-73.4H452.4z"/>
	</g>
	<g>
		<path d="M269.5,417.8h-10.3v-5.6h27v5.6h-9.9v36.9h-6.7L269.5,417.8L269.5,417.8z"/>
		<path d="M290.5,412.3h6.7v17.1H310v-17.1h6.7v42.9H310v-19.8h-12.7v19.8h-6.7L290.5,412.3L290.5,412.3z"/>
		<path d="M323.5,412.3h23v5.6h-16.3v11.9h15.5v5.6h-15.5v13.5h16.7v5.6h-23.4V412.3z"/>
		<path d="M111.2,663.1V473h30.2c10.3,0,17.5,2.4,21.8,7.5s6.3,13.5,6.3,25v38.1c0,11.9-4,19-11.5,21c3.6,0.8,6.7,2.8,9.5,6
			c2.8,3.2,4,8.3,4,15.1v45.2c0,11.1-2.4,19.4-7.5,24.6c-5.2,5.2-12.7,7.5-23,7.5L111.2,663.1L111.2,663.1z M153.2,505.1
			c0-5.6-0.8-9.1-2.8-11.5c-1.6-2-4.8-3.2-9.1-3.2h-12.7v67.1h13.1c4,0,7.1-1.2,8.7-3.2c1.6-2,2.8-5.2,2.8-9.5V505.1z M154,588.5
			c0-5.6-0.8-9.1-2.4-11.5s-4.8-3.6-9.9-3.6h-13.1v72.2h12.7c8.3,0,12.3-4.8,12.3-14.7v-42.5H154z"/>
		<path d="M182.6,663.1V473H233v17.9h-32.9v66.7h23V575h-23v70.6h34.1v17.5L182.6,663.1L182.6,663.1z"/>
		<path d="M262,663.1V490.8h-21.4V473h59.9v17.9H279v172.2H262z"/>
		<path d="M327.8,663.1V490.8h-21.4V473h59.9v17.9h-21.4v172.2H327.8z"/>
		<path d="M375.4,663.1V473h50.4v17.9h-32.9v66.7h23V575h-23v70.6H427v17.5L375.4,663.1L375.4,663.1z"/>
		<path d="M481.4,663.1c-2-15.1-4-29.4-6.3-43.6c-2-13.9-4.4-28.2-7.1-42.9c-0.8,0-1.6,0.4-2,0.4c-0.8,0-1.2,0-2,0h-9.5v86.1h-17.5
			V473h29c11.1,0,19.4,2.8,25,7.5c5.6,5.2,8.3,13.9,8.3,26.6v37.7c0,13.9-4.8,23-13.9,27.8c3.2,15.5,6,30.6,8.7,45.2
			c2.8,14.7,5.2,29.8,7.5,44.8h-20.2V663.1z M481,509.5c0-6.7-1.2-11.9-3.2-14.7s-6-4-12.3-4H454v70.2h11.5c5.6,0,9.1-1.2,11.5-4
			c2.4-2.4,3.6-6.3,3.6-11.9v-35.7H481z"/>
		<path d="M113.9,673h12.7l10.3,60.7h0.4l10.3-60.7h13.1l10.3,61.1h0.4l10.3-61.1h12.3l-15.5,78.2h-14.3l-9.9-58.7H154l-9.9,58.7
			h-14.3L113.9,673z"/>
		<path d="M200.1,673h42.5v10.3h-29.8v21.8h28.2v10.3h-28.2v25h30.6v10.3h-43.3L200.1,673L200.1,673z"/>
		<path d="M277.8,673h12.3v67.5h30.2v10.3h-42.9V673H277.8z"/>
		<path d="M323.9,712.3c0-27.8,7.9-40.5,25.8-40.5c17.9,0,25.8,12.7,25.8,40.5c0,27.8-7.9,40.5-25.8,40.5
			C331.8,752.7,323.9,740,323.9,712.3z M363.1,711.9c0-26.2-6-31-13.5-31c-7.5,0-13.5,4.8-13.5,31c0,27,6,31.3,13.5,31.3
			C357.2,743.2,363.1,738.8,363.1,711.9z"/>
		<path d="M383,712.3c0-27.8,7.9-40.5,25.8-40.5s25.8,12.7,25.8,40.5c0,27.8-7.9,40.5-25.8,40.5S383,740,383,712.3z M422.3,711.9
			c0-26.2-6-31-13.5-31s-13.5,4.8-13.5,31c0,27,6,31.3,13.5,31.3S422.3,738.8,422.3,711.9z"/>
		<path d="M444.1,673h12.3v34.1h0.4l23.8-34.1h13.5l-22.6,32.9l25,45.2h-14.3l-19-35.3l-6.7,9.9v25.4h-12.3L444.1,673L444.1,673z"/>
	</g>
	<g>
		<rect x="360.8" y="428.5" width="143.6" height="5.6"/>
		<rect x="107.6" y="428.5" width="143.6" height="5.6"/>
	</g>
	<g>
		<rect x="360.8" y="56.7" width="143.6" height="5.6"/>
		<rect x="107.6" y="56.7" width="143.6" height="5.6"/>
	</g>
</g>
</svg>
