<?xml version="1.0" encoding="utf-8"?>
<!-- Generator: Adobe Illustrator 17.1.0, SVG Export Plug-In . SVG Version: 6.00 Build 0)  -->
<!DOCTYPE svg PUBLIC "-//W3C//DTD SVG 1.1//EN" "http://www.w3.org/Graphics/SVG/1.1/DTD/svg11.dtd">
<svg version="1.1" id="Layer_1" xmlns="http://www.w3.org/2000/svg" xmlns:xlink="http://www.w3.org/1999/xlink" x="0px" y="0px"
	 viewBox="0 0 150.5 150.4" enable-background="new 0 0 150.5 150.4" xml:space="preserve">
<g>
	<defs>
		<rect id="SVGID_1_" width="150.5" height="150.4"/>
	</defs>
	<clipPath id="SVGID_2_">
		<use xlink:href="#SVGID_1_"  overflow="visible"/>
	</clipPath>
	<path clip-path="url(#SVGID_2_)" d="M75.2,0c-23,0-43.5,11.2-60.8,31.3l-1.1,1.3l37.3,23.7c1.8-6.5,4-12.9,7.1-19
		c0-0.1,0.1-0.1,0.1-0.2c0.9-1.2,1.1-2.3,0.2-3.7c-0.6-0.9-0.7-2.2-0.8-3.3c-0.1-2.2-0.2-4.5,0.1-6.7c0.5-3.8,3.7-6.6,7.6-7.2
		c0.2,0,0.4-0.1,0.6-0.2h19.4c1.6,0.6,3.3,1,4.7,1.9c2.5,1.6,3.6,4.2,3.7,7.2c0,2,0.1,3.9-0.1,5.9c-0.1,1.2-0.9,2.3-1.3,3.5
		c-0.1,0.4-0.2,0.9-0.1,1.2c3.6,6.6,6.1,13.6,8,20.9c1.1,4,1.7,8.1,2.5,12.1c0.1,0.5,0.1,1.1,0.1,1.6c0,6.3,0,12.6,0,18.9l36.9,23.5
		l0.8-1.4c7.2-12.3,10.3-23.8,10.3-36.2C150.5,33.8,116.7,0,75.2,0"/>
	<path clip-path="url(#SVGID_2_)" d="M93.5,70.9c0-1.3,0-2.6-0.3-3.8c-1.1-4.6-2.3-9.2-3.7-13.7c-1.4-4.7-3.2-9.3-5.7-13.5
		c-0.4-0.6-0.9-1.2-1.4-1.6c-1.9-1.2-2.8-2.7-2.5-4.8c0.3-1.8,1.6-3.1,3.7-3.6c0.6-0.1,0.9-0.4,0.9-1.1c-0.1-0.9-0.1-1.8,0-2.8
		c0.1-0.8-0.3-1-1.1-1c-5.4,0-10.9,0-16.3,0c-0.8,0-1.1,0.2-1.1,1c0.1,0.8,0.1,1.5,0,2.3c-0.1,1,0.2,1.4,1.2,1.6
		c2,0.4,3.1,1.9,3.3,3.8c0.2,1.7-0.4,3.2-1.9,4c-1.5,0.8-2.2,2.1-2.9,3.4c-3,5.7-5,11.8-6.7,18.1c-0.2,0.7-0.4,1.3-0.5,2l35,22.3
		C93.5,79.4,93.5,75.1,93.5,70.9"/>
	<path clip-path="url(#SVGID_2_)" d="M57,119.9c0,3.5,1.9,5.4,5.4,5.4c8.6,0,17.2,0,25.8,0c3.5,0,5.4-1.9,5.4-5.4
		c0-7.4,0-14.9,0-22.3L57,74.4C57,89.6,57,104.8,57,119.9"/>
	<path clip-path="url(#SVGID_2_)" d="M91.5,134c-0.6,0.1-1.3,0.2-1.9,0.3H60.9c-1.2-0.2-2.3-0.4-3.4-0.8c-5-1.5-8.7-6-9.3-11.2
		c-0.1-1.2-0.2-2.4-0.2-3.6c0-15.8,0-31.7,0-47.5c0-0.9,0-1.7,0.1-2.6L7.7,43L7,44.6c-4.6,10-7,19.6-7,30.6
		c0,40.7,32.4,73.9,72.8,75.2l5.3,0c21.2-0.7,41-9.4,54.8-25.8l1.1-1.3l-31.5-20c0,5.7,0,11.3,0,17C102.5,127.2,98.1,132.6,91.5,134
		"/>
</g>
</svg>
