<?xml version="1.0" encoding="utf-8"?>
<!-- Generator: Adobe Illustrator 17.1.0, SVG Export Plug-In . SVG Version: 6.00 Build 0)  -->
<!DOCTYPE svg PUBLIC "-//W3C//DTD SVG 1.1//EN" "http://www.w3.org/Graphics/SVG/1.1/DTD/svg11.dtd">
<svg version="1.1" id="Layer_1" xmlns="http://www.w3.org/2000/svg" xmlns:xlink="http://www.w3.org/1999/xlink" x="0px" y="0px"
	 viewBox="0 0 150.5 150.5" enable-background="new 0 0 150.5 150.5" xml:space="preserve">
<g>
	<defs>
		<rect id="SVGID_1_" width="150.5" height="150.5"/>
	</defs>
	<clipPath id="SVGID_2_">
		<use xlink:href="#SVGID_1_"  overflow="visible"/>
	</clipPath>
	<path clip-path="url(#SVGID_2_)" d="M75.2,0C33.7,0,0,33.7,0,75.2c0,41.6,33.7,75.2,75.2,75.2c41.6,0,75.2-33.7,75.2-75.2
		C150.5,33.7,116.8,0,75.2,0 M67.3,81.5c-1,2.4-1.3,4.9-1.7,7.4c-0.1,1-0.3,2.1-0.5,3.1l0,0c-7.8-4.4-14.5-9.6-20.5-15.9L31.2,61.8
		l10.7,17.5c0.4,0.6,0.7,1.3,1.2,1.9c4.5,6.3,10.5,11.8,18.2,16.8c2.6,1.7,3.6,3.3,3.7,6.2l0.1,1.6c0,0.7,0.1,1.4,0.1,1.9
		c-0.3,0-0.5-0.1-0.9-0.1c-0.6-0.1-1.4-0.2-2.3-0.3C40.1,105.1,17.6,84.6,20,58.8c0.2-2.2,0.9-4.5,1.6-6.8c0.3-0.8,0.5-1.7,1-2.7
		l0.8,0.3c14.5,4.8,28.1,9.3,39,19.8c0.4,0.3,0.7,0.7,1.1,1C68.2,74.1,69.2,77.2,67.3,81.5 M128.6,58.4c-2.8,8-5.7,16.3-10.3,23.7
		c-8.4,13.7-21,23.2-38.6,29.1c6.5-14.5,13.2-27.3,24.8-36.8L117.2,64l-14.9,7c-4.7,2.2-9,5.7-13.2,10.7c-3.7,4.5-7.1,9-10,13.4
		c-1.2,1.8-2.3,3.6-3.4,5.4c-1,1.6-1.9,3.1-3,4.7c-0.2-0.9-0.3-1.7-0.4-2.6c-2.5-22.4,11.8-44.3,33.2-51.1
		c8.3-2.6,16.2-2.6,23.5,0.2c1.2,0.4,1.5,0.7,1.6,0.6c0,0.1,0,0.5-0.5,1.7L128.6,58.4z"/>
</g>
</svg>
